<svg preserveAspectRatio="none" overflow="visible" style="display: block;" width="15.1572" height="15.1572" viewBox="0 0 15.1572 15.1572" fill="none" xmlns="http://www.w3.org/2000/svg">
<g id="elements">
<path id="Icon" d="M7.5791 0C11.7646 0.000190089 15.1572 3.39359 15.1572 7.5791C15.157 11.7645 11.7645 15.157 7.5791 15.1572C3.39359 15.1572 0.000189754 11.7646 0 7.5791C0 3.39347 3.39347 0 7.5791 0ZM7.5791 1.05762C3.97751 1.05762 1.05762 3.97751 1.05762 7.5791C1.05781 11.1805 3.97763 14.0996 7.5791 14.0996C11.1804 14.0994 14.0994 11.1804 14.0996 7.5791C14.0996 3.97763 11.1805 1.05781 7.5791 1.05762ZM10.0088 5.10645C10.2061 4.89118 10.5406 4.87689 10.7559 5.07422C10.9711 5.27155 10.9854 5.60603 10.7881 5.82129L6.91113 10.0508C6.81378 10.157 6.67722 10.2194 6.5332 10.2227C6.38902 10.2258 6.24944 10.1694 6.14746 10.0674L4.38477 8.30469C4.17861 8.09823 4.17854 7.76403 4.38477 7.55762C4.59126 7.35113 4.92632 7.35113 5.13281 7.55762L6.50488 8.92969L10.0088 5.10645Z" fill="#63AC39"/>
</g>
</svg>
